<svg width="66" height="65" viewBox="0 0 66 65" fill="none" xmlns="http://www.w3.org/2000/svg">
<path fill-rule="evenodd" clip-rule="evenodd" d="M30.7057 5.6068C30.7056 5.60682 30.7057 5.60678 30.7057 5.6068L5.65668 18.3114C5.45056 18.4161 5.30335 18.5567 5.21165 18.6991C5.12125 18.8394 5.08341 18.9821 5.08341 19.1141V44.1826C5.08411 44.8569 5.28129 45.5319 5.67319 46.1394C6.06654 46.7493 6.64673 47.2752 7.37234 47.6431L30.7057 59.4838C30.7058 59.4839 30.7055 59.4837 30.7057 59.4838C31.3976 59.8346 32.1883 60.0242 33.0001 60.0242C33.8119 60.0242 34.602 59.8349 35.294 59.4841C35.2942 59.484 35.2938 59.4841 35.294 59.4841L58.6273 47.6434C59.3533 47.2752 59.9342 46.7488 60.3275 46.1386C60.7195 45.5306 60.9165 44.8551 60.9167 44.1805C60.9167 44.1803 60.9167 44.1807 60.9167 44.1805V19.1142C60.9168 18.9822 60.8789 18.8394 60.7885 18.6991C60.6968 18.5567 60.5497 18.4162 60.3437 18.3116C60.3437 18.3115 60.3438 18.3116 60.3437 18.3116L35.2945 5.6068C35.2944 5.60678 35.2945 5.60682 35.2945 5.6068C34.6024 5.25587 33.8121 5.06645 33.0001 5.06645C32.1881 5.06645 31.3977 5.25587 30.7057 5.6068ZM28.8212 1.89066C30.1094 1.23738 31.5469 0.89978 33.0001 0.89978C34.4532 0.89978 35.8908 1.23738 37.179 1.89066L62.23 14.5963C63.0626 15.0191 63.7808 15.6499 64.2915 16.443C64.8036 17.2381 65.0834 18.1609 65.0834 19.1142C65.0834 19.1142 65.0834 19.1142 65.0834 19.1142V44.1805C65.083 45.6769 64.6437 47.1333 63.8296 48.3962C63.0168 49.6569 61.8653 50.6731 60.5128 51.359C60.5127 51.3591 60.513 51.3589 60.5128 51.359L37.1795 63.1997C35.8913 63.853 34.4532 64.1908 33.0001 64.1908C31.5469 64.1908 30.1094 63.8532 28.8212 63.1999L5.48782 51.3593C5.48765 51.3592 5.48799 51.3594 5.48782 51.3593C4.13602 50.6736 2.9844 49.6579 2.17173 48.398C1.35767 47.1359 0.917956 45.6809 0.916749 44.1852L0.916748 19.1143C0.916748 19.1143 0.916748 19.1143 0.916748 19.1143C0.916723 18.161 1.19654 17.2381 1.70861 16.443C2.21939 15.6499 2.93758 15.0191 3.77015 14.5963L28.8212 1.89066Z" fill="#754E29"/>
<path fill-rule="evenodd" clip-rule="evenodd" d="M30.9168 33.8239L2.05762 19.1833L3.94271 15.4674L33.0002 30.2086L62.0576 15.4674L63.9427 19.1833L35.0835 33.8239V62.9834H30.9168V33.8239Z" fill="#754E29"/>
<path fill-rule="evenodd" clip-rule="evenodd" d="M49.858 8.77258C50.3785 9.79868 49.9687 11.0525 48.9426 11.5731L18.9426 26.7924C17.9165 27.313 16.6627 26.9031 16.1421 25.877C15.6216 24.8509 16.0314 23.5971 17.0575 23.0766L47.0575 7.8572C48.0836 7.33665 49.3374 7.74648 49.858 8.77258ZM11.1433 32.5976C11.6652 31.5722 12.9196 31.164 13.945 31.6859L23.945 36.7752C24.9704 37.2971 25.3786 38.5514 24.8567 39.5769C24.3349 40.6023 23.0805 41.0105 22.0551 40.4886L12.0551 35.3993C11.0297 34.8774 10.6215 33.6231 11.1433 32.5976Z" fill="#754E29"/>
</svg>
